<svg width="51" height="49" viewBox="0 0 51 49" fill="none" xmlns="http://www.w3.org/2000/svg">
<path d="M15.3061 36.7099C15.2265 36.5648 15.2683 36.3626 15.2513 36.2018C15.2247 35.9491 15.1431 35.7057 15.0821 35.4605C14.9798 35.0486 14.7845 34.5781 14.5894 34.2007C14.2251 33.4961 13.9752 32.7518 13.4918 32.1141C13.1188 31.622 12.6078 31.2253 12.0583 30.971C11.8381 30.869 12.3047 30.9233 12.4142 30.8776C12.6503 30.7793 12.9558 30.831 13.2056 30.831C13.8308 30.831 14.4532 30.9844 15.0597 31.1369C16.0186 31.3779 16.8765 31.7896 17.7948 32.1374C18.0875 32.2482 18.4051 32.5199 18.7106 32.5573C18.8682 32.5766 19.0706 32.7182 19.1835 32.7854C19.2658 32.8344 19.6932 32.9829 19.6962 32.9306C19.709 32.704 19.7154 32.2135 19.853 32.0415C19.8919 31.9928 19.864 31.9261 19.8828 31.8704C19.9226 31.7531 19.9917 31.6488 20.0322 31.5309C20.0875 31.3695 20.1145 31.2003 20.179 31.0435C20.236 30.9049 20.2851 30.7062 20.3134 30.5562C20.3498 30.3627 20.466 30.2489 20.5224 30.0559C20.7136 29.4016 20.9614 28.8274 21.1969 28.1896C21.2762 27.9748 21.488 27.7498 21.488 27.4949C21.488 27.2729 21.5434 26.9223 21.8116 27.0154C21.9924 27.0782 22.0804 27.2692 22.2396 27.3679C22.4837 27.5192 22.6565 27.7663 22.8966 27.933C23.1897 28.1365 23.5674 28.5313 23.7727 28.8351C24.0927 29.3087 24.4454 29.8114 24.6935 30.3281C24.9198 30.7995 25.2062 31.399 25.2062 31.9404C25.2062 32.0798 25.1592 33.3505 25.2609 33.3505C25.3683 33.3505 25.7879 33.2771 25.8582 33.2105C25.9179 33.154 26.1305 33.129 26.2141 33.1198C26.395 33.1 26.5739 33.0643 26.7541 33.0343C26.9635 32.9994 27.2174 32.9773 27.4236 32.9773C27.6135 32.9773 27.9643 32.9486 28.118 33.0706C28.2251 33.1556 28.4253 33.0998 28.5211 33.1846C28.6819 33.3269 28.8402 33.3768 29.0612 33.3998C29.4394 33.4392 29.7806 33.6713 30.1139 33.8275C30.2534 33.8929 30.4032 33.9866 30.5469 34.04C30.6165 34.0659 30.7301 34.0628 30.7858 34.1178C30.8501 34.1812 30.8214 34.2173 30.9177 34.2396C31.2131 34.308 30.6248 34.72 30.537 34.8332C30.3781 35.038 30.032 35.2206 29.9447 35.4709C29.8957 35.6112 29.8083 35.6114 29.7057 35.6938C29.5952 35.7826 29.5458 35.9333 29.427 36.0256C29.2113 36.1931 29.0784 36.368 28.9193 36.5958C28.6333 37.0054 28.1802 37.2509 27.894 37.6534C27.792 37.7968 27.6396 38.0255 27.4908 38.1096C27.3374 38.1964 27.2149 38.3917 27.0627 38.457C26.9902 38.4881 26.8707 38.532 26.8188 38.5995C26.7632 38.672 26.6082 38.6478 26.5401 38.7058C26.355 38.8636 26.2514 38.9495 25.9901 38.9495C25.7452 38.9495 26.0283 39.007 26.1569 39.0895C26.3555 39.2168 26.444 39.4484 26.6397 39.5794C27.0912 39.8817 27.0428 40.7961 27.0428 41.2772C27.0428 41.4273 27.1528 41.5891 27.1747 41.749C27.2047 41.9673 27.2573 42.216 27.2668 42.4333C27.285 42.8504 27.4393 43.2507 27.4883 43.6593C27.4979 43.7392 27.6426 43.9454 27.5331 43.9834C27.4348 44.0175 27.2794 43.9885 27.1772 43.9885C26.8287 43.9885 26.5556 43.8791 26.2141 43.8252C25.6068 43.7294 25.0517 43.3586 24.5641 42.9828C23.9353 42.4982 23.2109 42.1198 22.5632 41.6582C22.3525 41.5081 22.0519 41.4037 21.8663 41.2279C21.7346 41.1032 21.6379 40.9865 21.4706 40.9091C21.3874 40.8706 21.295 40.7911 21.1994 40.7458C21.0893 40.6937 21.0888 40.5439 20.9505 40.5359C20.773 40.5256 20.5024 40.7102 20.3333 40.7795C20.0235 40.9065 19.6378 40.9496 19.3602 41.1424C19.1339 41.2995 18.7755 41.37 18.5091 41.4457C18.2072 41.5314 17.9458 41.6995 17.6355 41.7593C17.0621 41.8699 16.5558 42.2053 15.9955 42.3322C15.6224 42.4166 15.2691 42.6057 14.9228 42.7754C14.7483 42.861 14.5454 42.8749 14.3903 42.9673C14.3672 42.981 14.3384 43.1018 14.3231 43.0061C14.3091 42.9186 14.3206 42.8194 14.3206 42.7314C14.3206 42.4093 14.3755 42.0863 14.4002 41.7645C14.4405 41.2394 14.5216 40.7211 14.5918 40.2092C14.6379 39.8734 14.8475 39.5632 14.9029 39.2398C14.9338 39.0599 15.1496 38.9351 15.1717 38.7162C15.1768 38.6655 15.289 38.4691 15.3285 38.4362C15.3714 38.4005 15.4786 38.2341 15.5077 38.1796C15.5558 38.0895 15.624 38.016 15.6545 37.9126C15.7328 37.6475 15.9779 37.0457 15.6993 36.8136C15.6504 36.7728 15.5726 36.76 15.5201 36.7203C15.4798 36.6897 15.428 36.7132 15.3857 36.6736C15.3517 36.6417 15.3613 36.5972 15.3285 36.5699C15.243 36.4987 15.1805 36.1682 15.1269 36.0567" stroke="#D0C896" stroke-linecap="round"/>
<path d="M33.2583 15.4762L22.2255 27.8545L24.3783 29.7381L25.9928 33.7745H28.1456L48.5966 19.7817C45.5469 21.1271 39.5551 23.7642 39.9856 23.549C40.4162 23.3337 43.5735 19.692 45.0984 17.898L38.3711 21.9344L42.1384 16.2835L35.6802 21.6653L39.4474 16.0144L31.6438 21.9344L33.2583 15.4762Z" stroke="#D0C896"/>
<path d="M24.5656 28.1323C24.7702 27.9732 24.9251 27.7267 25.1095 27.5423C25.2723 27.3795 25.4455 27.2311 25.5874 27.0479C25.6913 26.9137 25.7746 26.7788 25.8939 26.6557C26.443 26.0892 26.9144 25.4558 27.4365 24.8626C27.7055 24.557 27.94 24.2575 28.1748 23.9266C28.351 23.6782 28.5277 23.4174 28.7285 23.1882C29.1174 22.7445 29.366 22.1957 29.7338 21.7347C30.0596 21.3264 30.3846 20.9386 30.7358 20.5679C30.7844 20.5166 31.1073 20.211 31.1149 20.2185C31.1491 20.2528 31.0233 20.4378 31.0028 20.4789" stroke="#D0C896" stroke-linecap="round"/>
<path d="M26.3159 28.8146C26.4165 28.8054 26.4911 28.7259 26.5664 28.6662C26.789 28.4897 27.0015 28.3027 27.2157 28.1158C27.793 27.6122 28.342 27.0837 28.9098 26.57C29.1763 26.3289 29.4377 26.0827 29.7009 25.8383C29.8207 25.727 29.9103 25.5914 30.0305 25.479C30.1698 25.3487 30.299 25.2177 30.4095 25.062C30.5239 24.9008 30.6753 24.7815 30.8116 24.6401C31.0336 24.4102 31.2408 24.1725 31.4741 23.9529C31.7121 23.729 32.0324 23.5218 32.2339 23.2674C32.3043 23.1784 32.3956 23.1441 32.4811 23.0729C32.591 22.9813 32.6803 22.8699 32.7942 22.7795C32.9536 22.6531 33.1044 22.5119 33.2606 22.3807C33.4006 22.2631 33.5195 22.1152 33.6495 21.9852C33.7386 21.8962 33.837 21.7822 33.933 21.7083C34.1584 21.5349 34.3633 21.334 34.5658 21.1315C34.6805 21.0169 34.8199 20.8821 34.9515 20.7871C35.0538 20.7132 35.1201 20.5959 35.2168 20.5234C35.3389 20.4318 35.4447 20.2455 35.5711 20.1823" stroke="#D0C896" stroke-linecap="round"/>
<path d="M29.6976 28.8739C29.7076 28.7732 29.8033 28.6774 29.8657 28.6069C30.176 28.2565 30.449 27.8745 30.7226 27.4945C31.2835 26.7155 31.896 25.9457 32.6179 25.3076C32.769 25.174 32.8907 25.0554 33.0513 24.945C33.2354 24.8185 33.4941 24.7373 33.7022 24.6616" stroke="#D0C896" stroke-linecap="round"/>
<path d="M29.312 31.8403C29.429 31.7331 29.5378 31.6255 29.6448 31.5074C29.9803 31.1373 30.4133 30.844 30.8051 30.5384C31.3431 30.1188 31.9091 29.7398 32.463 29.3419C33.4194 28.6548 34.362 27.9457 35.2877 27.2176C35.9209 26.7196 36.5433 26.2214 37.1334 25.6735C37.4379 25.3908 37.6788 25.0455 37.9657 24.744C38.1748 24.5242 38.3257 24.2744 38.5112 24.037C38.6419 23.8696 38.7386 23.6679 38.877 23.5096C38.9681 23.4055 38.9827 23.2539 39.0715 23.1652C39.2005 23.0361 39.3223 22.8882 39.4868 22.8224" stroke="#D0C896" stroke-linecap="round"/>
<path d="M31.8927 31.4843C32.2266 31.4843 32.4563 31.2888 32.72 31.102C33.7305 30.3863 34.8133 29.7933 35.8677 29.1442C36.6504 28.6624 37.4485 28.1837 38.2112 27.6708C38.4316 27.5227 38.661 27.3872 38.8803 27.2424C39.0017 27.1622 39.0709 27.0655 39.2066 27.0034C39.3913 26.919 39.5282 26.7835 39.6928 26.6672C39.8506 26.5557 40.0134 26.4809 40.1773 26.3837C40.5747 26.1482 40.9893 25.9395 41.3919 25.7114C41.7398 25.5142 42.0264 25.2585 42.3263 24.9961C42.4612 24.8781 42.5884 24.7356 42.735 24.6335C42.7889 24.5961 42.8403 24.5698 42.8685 24.5132" stroke="#D0C896" stroke-linecap="round"/>
<path d="M43.0762 24.2463C43.0942 24.1017 43.225 24.0064 43.2542 23.8606" stroke="#D0C896" stroke-linecap="round"/>
<path d="M41.9489 22.4664C41.9489 22.1522 42.3574 21.8575 42.5455 21.6457C42.8035 21.3552 43.0617 21.0669 43.3036 20.7624C43.5274 20.4806 43.7063 20.1654 43.9348 19.8873C44.2563 19.4959 44.4761 19.0275 44.7654 18.6117C44.914 18.398 45.0536 18.181 45.2021 17.9673C45.4688 17.5836 45.8484 17.3341 46.2387 17.0939C46.2466 17.089 46.4913 16.8843 46.4117 16.8615C46.1768 16.7944 45.7404 16.9307 45.5086 17.0016C44.9038 17.1866 44.3802 17.5331 43.8326 17.8388C43.3636 18.1006 42.8992 18.4082 42.4829 18.7452C42.3244 18.8735 42.0884 18.9376 41.9061 19.0319C41.6544 19.1623 41.3805 19.2691 41.1364 19.4126C40.9375 19.5297 40.7643 19.7053 40.5728 19.8378C40.504 19.8855 40.4503 19.9675 40.3767 20.0043" stroke="#D0C896" stroke-linecap="round"/>
<path d="M40.703 19.7076C40.6984 19.7818 40.6209 19.7714 40.5679 19.8148C40.4576 19.905 40.35 19.9977 40.2449 20.0933C40.1518 20.1779 39.9568 20.2428 39.8955 20.3471C39.8496 20.4251 39.6877 20.4719 39.6054 20.5152C39.5062 20.5674 39.4394 20.6124 39.3533 20.6849C39.285 20.7424 39.1821 20.7836 39.1308 20.8349" stroke="#D0C896" stroke-linecap="round"/>
<path d="M37.5289 19.8263C37.7405 19.6359 37.968 19.4564 38.1618 19.2462C38.57 18.8033 38.9104 18.2999 39.3945 17.9311C39.5422 17.8186 39.6345 17.6622 39.7702 17.5356C39.9353 17.3817 40.0775 17.2114 40.202 17.0247C40.3769 16.7623 40.6406 16.5422 40.8316 16.2864C40.9537 16.1227 41.0921 15.9682 41.2271 15.815C41.4055 15.6125 41.5418 15.3784 41.7149 15.1723C42.0405 14.7847 42.2772 14.3046 42.5653 13.8868C42.7022 13.6883 42.7809 13.4599 42.918 13.2672C42.9439 13.2307 43.1703 12.895 42.9938 13.0332C42.5935 13.3464 42.174 13.6367 41.7792 13.9561C41.1441 14.4698 40.4798 14.979 39.8048 15.4376C39.6078 15.5715 39.4123 15.709 39.2165 15.8447C39.0893 15.9329 38.935 15.9966 38.8177 16.0952C38.6672 16.2217 38.526 16.2759 38.3513 16.3704C38.18 16.4631 38.0391 16.5994 37.8618 16.6819C37.4277 16.884 37.023 17.1426 36.6044 17.3724C36.0489 17.6774 35.467 17.946 34.9251 18.2739C34.4213 18.5786 33.8867 18.8339 33.3858 19.1407C32.9071 19.434 32.4475 19.7566 31.9521 20.0043" stroke="#D0C896" stroke-linecap="round"/>
</svg>
